<svg width="31" height="31" viewBox="0 0 31 31" fill="none" xmlns="http://www.w3.org/2000/svg">
<g clip-path="url(#clip0_490_991)">
<path d="M15.2041 30.7525C23.4883 30.7525 30.2041 24.0367 30.2041 15.7525C30.2041 7.4682 23.4883 0.752472 15.2041 0.752472C6.91982 0.752472 0.204102 7.4682 0.204102 15.7525C0.204102 24.0367 6.91982 30.7525 15.2041 30.7525Z" fill="#334C8C"/>
<path d="M19.005 14.3334L18.7563 16.4216C18.7456 16.5185 18.6993 16.6081 18.6264 16.673C18.5535 16.7379 18.4592 16.7735 18.3616 16.7729H16.1905V22.9702C16.1911 23.0442 16.1623 23.1154 16.1105 23.1683C16.0588 23.2212 15.9882 23.2514 15.9142 23.2525H13.7017C13.6649 23.252 13.6286 23.2442 13.5948 23.2296C13.561 23.2151 13.5304 23.194 13.5047 23.1676C13.479 23.1412 13.4588 23.11 13.4452 23.0758C13.4316 23.0416 13.4249 23.0051 13.4254 22.9683L13.4373 16.7729H11.7932C11.6885 16.7729 11.5881 16.7313 11.5141 16.6573C11.44 16.5832 11.3984 16.4828 11.3984 16.3781V14.29C11.3984 14.1853 11.44 14.0849 11.5141 14.0109C11.5881 13.9368 11.6885 13.8952 11.7932 13.8952H13.4274V11.8702C13.4274 9.52747 14.8208 8.25247 16.8616 8.25247H18.5333C18.638 8.25247 18.7384 8.29406 18.8124 8.36809C18.8864 8.44211 18.928 8.54252 18.928 8.64721V10.4058C18.928 10.5105 18.8864 10.6109 18.8124 10.6849C18.7384 10.7589 18.638 10.8005 18.5333 10.8005H17.509C16.3997 10.8183 16.1905 11.3492 16.1905 12.1426V13.8893H18.6201C18.6756 13.8903 18.7302 13.9029 18.7804 13.9263C18.8306 13.9498 18.8754 13.9836 18.9117 14.0255C18.948 14.0674 18.9751 14.1164 18.9911 14.1695C19.0072 14.2225 19.0119 14.2784 19.005 14.3334Z" fill="white"/>
</g>
<defs>
<clipPath id="clip0_490_991">
<rect width="30" height="30" fill="white" transform="translate(0.205078 0.752472)"/>
</clipPath>
</defs>
</svg>
