<svg width="31" height="31" viewBox="0 0 31 31" fill="none" xmlns="http://www.w3.org/2000/svg">
<g clip-path="url(#clip0_490_1014)">
<path d="M15.2051 30.7525C23.4893 30.7525 30.205 24.0367 30.205 15.7525C30.205 7.4682 23.4893 0.752472 15.2051 0.752472C6.9208 0.752472 0.205078 7.4682 0.205078 15.7525C0.205078 24.0367 6.9208 30.7525 15.2051 30.7525Z" fill="url(#paint0_linear_490_1014)"/>
<path d="M18.2386 8.25247H12.1754C10.9908 8.25404 9.85518 8.72532 9.01753 9.56297C8.17988 10.4006 7.7086 11.5363 7.70703 12.7209V18.7841C7.7086 19.9687 8.17988 21.1043 9.01753 21.942C9.85518 22.7796 10.9908 23.2509 12.1754 23.2525H18.2386C19.4234 23.2514 20.5593 22.7803 21.3971 21.9425C22.2349 21.1048 22.706 19.9688 22.707 18.7841V12.7209C22.7054 11.5363 22.2342 10.4006 21.3965 9.56297C20.5589 8.72532 19.4232 8.25404 18.2386 8.25247ZM21.1991 18.7841C21.1991 19.5692 20.8872 20.3223 20.332 20.8775C19.7768 21.4327 19.0238 21.7446 18.2386 21.7446H12.1754C11.3903 21.7446 10.6372 21.4327 10.082 20.8775C9.52684 20.3223 9.21492 19.5692 9.21492 18.7841V12.7209C9.21492 11.9357 9.52684 11.1827 10.082 10.6275C10.6372 10.0723 11.3903 9.76037 12.1754 9.76037H18.2386C19.0238 9.76037 19.7768 10.0723 20.332 10.6275C20.8872 11.1827 21.1991 11.9357 21.1991 12.7209V18.7841Z" fill="white"/>
<path d="M15.2074 11.8742C14.4398 11.8738 13.6893 12.1011 13.0509 12.5273C12.4125 12.9535 11.9149 13.5595 11.6209 14.2686C11.327 14.9777 11.25 15.7581 11.3997 16.511C11.5493 17.2638 11.9189 17.9554 12.4617 18.4982C13.0045 19.041 13.6961 19.4106 14.4489 19.5602C15.2018 19.7099 15.9822 19.6329 16.6913 19.339C17.4004 19.045 18.0064 18.5474 18.4326 17.909C18.8588 17.2706 19.0861 16.5201 19.0857 15.7525C19.0847 14.7242 18.6757 13.7383 17.9486 13.0113C17.2215 12.2842 16.2357 11.8752 15.2074 11.8742ZM15.2074 18.1209C14.739 18.1209 14.2811 17.982 13.8916 17.7217C13.5021 17.4615 13.1986 17.0916 13.0193 16.6588C12.84 16.226 12.7931 15.7498 12.8845 15.2904C12.9759 14.831 13.2015 14.409 13.5327 14.0777C13.8639 13.7465 14.2859 13.5209 14.7454 13.4296C15.2048 13.3382 15.681 13.3851 16.1138 13.5643C16.5466 13.7436 16.9165 14.0472 17.1767 14.4366C17.4369 14.8261 17.5758 15.284 17.5758 15.7525C17.5758 16.3806 17.3263 16.983 16.8822 17.4272C16.438 17.8714 15.8356 18.1209 15.2074 18.1209Z" fill="white"/>
<path d="M19.1086 12.8334C19.6384 12.8334 20.0678 12.4039 20.0678 11.8742C20.0678 11.3444 19.6384 10.915 19.1086 10.915C18.5789 10.915 18.1494 11.3444 18.1494 11.8742C18.1494 12.4039 18.5789 12.8334 19.1086 12.8334Z" fill="white"/>
</g>
<defs>
<linearGradient id="paint0_linear_490_1014" x1="15.2051" y1="30.6143" x2="15.2051" y2="2.78537" gradientUnits="userSpaceOnUse">
<stop stop-color="#E09B3D"/>
<stop offset="0.24" stop-color="#C74C4D"/>
<stop offset="0.65" stop-color="#C21975"/>
<stop offset="1" stop-color="#7024C4"/>
</linearGradient>
<clipPath id="clip0_490_1014">
<rect width="30" height="30" fill="white" transform="translate(0.205078 0.752472)"/>
</clipPath>
</defs>
</svg>
