<svg width="31" height="31" viewBox="0 0 31 31" fill="none" xmlns="http://www.w3.org/2000/svg">
<g clip-path="url(#clip0_490_1001)">
<path d="M15.5508 30.752C23.835 30.752 30.5507 24.0363 30.5507 15.752C30.5507 7.46773 23.835 0.751999 15.5508 0.751999C7.2665 0.751999 0.550781 7.46773 0.550781 15.752C0.550781 24.0363 7.2665 30.752 15.5508 30.752Z" fill="#0B69C7"/>
<path d="M12.197 10.2987C12.1974 10.7041 12.0775 11.1004 11.8525 11.4376C11.6276 11.7748 11.3076 12.0377 10.9332 12.193C10.5588 12.3483 10.1467 12.3891 9.7491 12.3101C9.35151 12.2311 8.98629 12.036 8.69966 11.7493C8.41302 11.4627 8.21786 11.0975 8.13888 10.6999C8.05989 10.3023 8.10063 9.8902 8.25593 9.51577C8.41124 9.14135 8.67413 8.82141 9.01134 8.59644C9.34854 8.37148 9.74491 8.25161 10.1503 8.252C10.6929 8.25252 11.2132 8.46832 11.5969 8.85204C11.9806 9.23576 12.1965 9.75605 12.197 10.2987Z" fill="white"/>
<path d="M11.2279 13.2H9.07267C8.79253 13.2 8.56543 13.4271 8.56543 13.7073V22.7448C8.56543 23.0249 8.79253 23.252 9.07267 23.252H11.2279C11.5081 23.252 11.7352 23.0249 11.7352 22.7448V13.7073C11.7352 13.4271 11.5081 13.2 11.2279 13.2Z" fill="white"/>
<path d="M23.0019 18.4106V22.7862C23.0019 22.9097 22.9528 23.0282 22.8655 23.1156C22.7781 23.2029 22.6597 23.252 22.5361 23.252H20.223C20.0994 23.252 19.981 23.2029 19.8936 23.1156C19.8063 23.0282 19.7572 22.9097 19.7572 22.7862V18.5467C19.7572 17.9132 19.9407 15.7836 18.1032 15.7836C16.6782 15.7836 16.3881 17.2481 16.3269 17.9053V22.7961C16.3244 22.9172 16.2747 23.0326 16.1885 23.1177C16.1022 23.2028 15.9862 23.251 15.8651 23.252H13.6269C13.5657 23.2523 13.505 23.2404 13.4484 23.2171C13.3917 23.1938 13.3403 23.1595 13.297 23.1162C13.2537 23.0729 13.2194 23.0214 13.1961 22.9648C13.1727 22.9081 13.1609 22.8475 13.1611 22.7862V13.6678C13.1609 13.6065 13.1727 13.5457 13.196 13.4889C13.2193 13.4322 13.2536 13.3806 13.2969 13.3372C13.3401 13.2937 13.3916 13.2592 13.4482 13.2357C13.5049 13.2121 13.5656 13.2 13.6269 13.2H15.8651C15.9272 13.199 15.9888 13.2103 16.0465 13.2333C16.1042 13.2564 16.1567 13.2907 16.201 13.3342C16.2452 13.3778 16.2804 13.4297 16.3044 13.4869C16.3284 13.5442 16.3407 13.6057 16.3407 13.6678V14.4573C16.8697 13.6678 17.6552 13.052 19.3269 13.052C23.0236 13.05 23.0019 16.5099 23.0019 18.4106Z" fill="white"/>
</g>
<defs>
<clipPath id="clip0_490_1001">
<rect width="30" height="30" fill="white" transform="translate(0.546875 0.752472)"/>
</clipPath>
</defs>
</svg>
