<svg width="31" height="31" viewBox="0 0 31 31" fill="none" xmlns="http://www.w3.org/2000/svg">
<g clip-path="url(#clip0_490_996)">
<path d="M15.8926 30.7525C24.1768 30.7525 30.8925 24.0367 30.8925 15.7525C30.8925 7.4682 24.1768 0.752472 15.8926 0.752472C7.6083 0.752472 0.892578 7.4682 0.892578 15.7525C0.892578 24.0367 7.6083 30.7525 15.8926 30.7525Z" fill="#00A6DE"/>
<path d="M23.3615 11.213C23.0069 11.7456 22.5737 12.2214 22.0766 12.6242C22.0139 12.6764 21.9637 12.742 21.9296 12.816C21.8954 12.8901 21.8782 12.9709 21.8792 13.0525V13.1018C21.8735 14.1714 21.677 15.2315 21.299 16.2321C20.9095 17.2823 20.3309 18.2523 19.5917 19.0939C18.5985 20.2247 17.3207 21.069 15.8911 21.5393C14.9517 21.8442 13.9695 21.9968 12.9819 21.9913C11.4151 21.9911 9.87615 21.5764 8.52137 20.7893C8.47282 20.7617 8.4346 20.719 8.41252 20.6677C8.39043 20.6164 8.38569 20.5593 8.399 20.5051C8.41266 20.4517 8.44379 20.4045 8.48743 20.3709C8.53106 20.3372 8.5847 20.3192 8.63979 20.3196H9.01479C10.2055 20.3225 11.3699 19.9692 12.3582 19.3051C11.7692 19.2097 11.218 18.9536 10.7653 18.565C10.3125 18.1763 9.97588 17.6702 9.79242 17.1025C9.78302 17.074 9.78132 17.0436 9.78748 17.0143C9.79363 16.985 9.80743 16.9579 9.82748 16.9356C9.84752 16.9134 9.87309 16.8968 9.9016 16.8877C9.9301 16.8785 9.96053 16.877 9.98978 16.8834C10.1694 16.9172 10.3518 16.9344 10.5345 16.9347H10.6036C10.0343 16.6732 9.55303 16.2524 9.21783 15.7231C8.88264 15.1939 8.70792 14.5789 8.71479 13.9525C8.71499 13.9232 8.72278 13.8944 8.7374 13.869C8.75202 13.8436 8.77297 13.8224 8.79821 13.8075C8.82345 13.7926 8.85212 13.7845 8.88142 13.7839C8.91073 13.7834 8.93968 13.7905 8.96544 13.8045C9.19698 13.9337 9.44543 14.03 9.7036 14.0906C9.19331 13.5858 8.86508 12.9258 8.77042 12.2142C8.67576 11.5026 8.82002 10.7798 9.18058 10.1591C9.19422 10.1352 9.21344 10.115 9.23659 10.1003C9.25975 10.0855 9.28614 10.0766 9.31351 10.0742C9.34088 10.0719 9.3684 10.0762 9.39372 10.0869C9.41904 10.0975 9.44139 10.1142 9.45886 10.1354C10.1717 11.018 11.0546 11.7485 12.0551 12.2835C13.0556 12.8185 14.1533 13.1471 15.2832 13.2498H15.299C15.3156 13.2494 15.3319 13.2455 15.347 13.2385C15.362 13.2315 15.3755 13.2215 15.3866 13.2092C15.3977 13.1968 15.4061 13.1823 15.4114 13.1666C15.4167 13.1508 15.4188 13.1342 15.4174 13.1176C15.3733 12.7215 15.3987 12.3208 15.4924 11.9334C15.6198 11.4068 15.8812 10.9222 16.2512 10.5266C16.6213 10.1309 17.0874 9.83772 17.6042 9.67551C17.9359 9.57192 18.2812 9.51869 18.6286 9.51761C19.4163 9.5167 20.1772 9.8038 20.7681 10.3248C20.8446 10.3933 20.9437 10.4313 21.0464 10.4314C21.0797 10.4307 21.1128 10.4261 21.145 10.4176C21.7002 10.2773 22.232 10.0573 22.724 9.76432C22.7534 9.74616 22.7878 9.73754 22.8223 9.73965C22.8568 9.74176 22.8898 9.75449 22.9169 9.7761C22.9439 9.79771 22.9635 9.82714 22.9732 9.86037C22.9828 9.89359 22.9819 9.92898 22.9707 9.96169C22.8064 10.4784 22.5138 10.9449 22.12 11.3176C22.4747 11.233 22.8209 11.1161 23.1542 10.9683C23.1871 10.9556 23.2232 10.9534 23.2573 10.9622C23.2915 10.9709 23.3221 10.99 23.3449 11.0169C23.3677 11.0438 23.3815 11.0772 23.3845 11.1123C23.3875 11.1475 23.3794 11.1827 23.3615 11.213Z" fill="white"/>
</g>
<defs>
<clipPath id="clip0_490_996">
<rect width="30" height="30" fill="white" transform="translate(0.892578 0.752472)"/>
</clipPath>
</defs>
</svg>
