<svg width="31" height="31" viewBox="0 0 31 31" fill="none" xmlns="http://www.w3.org/2000/svg">
<g clip-path="url(#clip0_490_1009)">
<path d="M15.5508 30.7523C23.835 30.7523 30.5507 24.0366 30.5507 15.7523C30.5507 7.46803 23.835 0.752304 15.5508 0.752304C7.2665 0.752304 0.550781 7.46803 0.550781 15.7523C0.550781 24.0366 7.2665 30.7523 15.5508 30.7523Z" fill="#F20000"/>
<path d="M22.699 12.1444C22.399 11.2128 21.4063 10.6622 20.4846 10.5339C17.1991 10.1845 13.8858 10.1845 10.6004 10.5339C9.68654 10.6622 8.69378 11.2207 8.39378 12.1444C7.92603 14.5276 7.92603 16.979 8.39378 19.3622C8.70167 20.2918 9.69444 20.8444 10.6161 20.9727C13.9017 21.3201 17.2148 21.3201 20.5003 20.9727C21.4142 20.8444 22.4069 20.2839 22.7069 19.3622C23.1721 16.9785 23.1694 14.5271 22.699 12.1444ZM13.7563 18.626V12.8786L18.4359 15.7523C16.8589 16.7214 15.3273 17.6648 13.7563 18.626Z" fill="white"/>
</g>
<defs>
<clipPath id="clip0_490_1009">
<rect width="30" height="30" fill="white" transform="translate(0.546875 0.752472)"/>
</clipPath>
</defs>
</svg>
