<svg width="40" height="40" viewBox="0 0 40 40" fill="none" xmlns="http://www.w3.org/2000/svg">
<rect width="40" height="40" rx="20" fill="#EBE9FE"/>
<path d="M24.8487 17.8895C25.4987 17.8895 26.1188 17.6395 26.5788 17.1795C27.5287 16.2295 27.5287 14.6795 26.5788 13.7295C26.1188 13.2695 25.4987 13.0195 24.8487 13.0195C24.1987 13.0195 23.5788 13.2695 23.1187 13.7295C22.1687 14.6795 22.1687 16.2295 23.1187 17.1795C23.5788 17.6395 24.1887 17.8895 24.8487 17.8895ZM23.9787 14.5795C24.2087 14.3495 24.5187 14.2195 24.8487 14.2195C25.1787 14.2195 25.4787 14.3495 25.7187 14.5795C26.1987 15.0595 26.1987 15.8395 25.7187 16.3095C25.4887 16.5395 25.1787 16.6695 24.8487 16.6695C24.5187 16.6695 24.2087 16.5395 23.9787 16.3095C23.4987 15.8295 23.4987 15.0495 23.9787 14.5795Z" fill="#7A5AF8"/>
<path d="M30.6995 9H30.4895C26.1895 9 21.4295 11.22 18.3395 14.65C15.3595 14.72 12.4395 15.97 10.3195 18.09C10.1595 18.25 10.0995 18.5 10.1695 18.71C10.2395 18.93 10.4295 19.09 10.6595 19.12L13.9095 19.59L13.6595 19.87C13.4495 20.11 13.4595 20.48 13.6795 20.71L19.5695 26.6C19.6895 26.71 19.8395 26.78 19.9995 26.78C20.1495 26.78 20.2995 26.72 20.3995 26.63L20.6795 26.38L21.1495 29.64C21.1795 29.85 21.3395 30.04 21.5795 30.12C21.6395 30.14 21.6995 30.15 21.7595 30.15C21.9295 30.15 22.0995 30.08 22.2195 29.96C24.3095 27.87 25.5495 24.96 25.6295 21.98C29.1095 18.85 31.3795 13.89 31.2795 9.62C31.2795 9.29 31.0095 9.03 30.6895 9.03L30.6995 9ZM17.1495 15.97L14.8895 18.51L12.1295 18.11C13.5695 16.98 15.3295 16.23 17.1495 15.97ZM18.9995 15.73C21.7695 12.49 26.0995 10.34 30.0695 10.23C29.9495 14.2 27.7995 18.54 24.5495 21.31L20.0295 25.34L14.9495 20.26L18.9895 15.73H18.9995ZM24.3195 23.14C24.0595 24.98 23.3295 26.7 22.1795 28.16L21.7895 25.4L24.3295 23.14H24.3195Z" fill="#7A5AF8"/>
<path d="M13.643 23.6719C12.843 23.6719 12.093 23.9819 11.533 24.5419C10.553 25.5319 9.26299 29.6919 9.02299 30.5219C8.96299 30.7319 9.02299 30.9719 9.17299 31.1319C9.28299 31.2419 9.44299 31.3119 9.60299 31.3119C9.66299 31.3119 9.71299 31.3119 9.78299 31.2919C10.613 31.0419 14.773 29.7619 15.763 28.7719C16.323 28.2119 16.633 27.4619 16.633 26.6619C16.633 25.8619 16.323 25.1119 15.763 24.5519C15.203 23.9919 14.453 23.6819 13.653 23.6819L13.643 23.6719ZM14.893 27.9019C14.423 28.3719 12.313 29.1819 10.533 29.7619C11.113 27.9819 11.923 25.8719 12.393 25.4019C12.723 25.0719 13.173 24.8819 13.643 24.8819C14.113 24.8819 14.563 25.0619 14.893 25.4019C15.583 26.0919 15.583 27.2119 14.893 27.9019Z" fill="#7A5AF8"/>
</svg>
