<svg width="40" height="41" viewBox="0 0 40 41" fill="none" xmlns="http://www.w3.org/2000/svg">
<rect y="0.171875" width="40" height="40" rx="20" fill="#EBE9FE"/>
<path d="M17 10.1719H23C28 10.1719 30 12.1719 30 17.1719V23.1719C30 28.1719 28 30.1719 23 30.1719H17C12 30.1719 10 28.1719 10 23.1719V17.1719C10 12.1719 12 10.1719 17 10.1719Z" stroke="#7A5AF8" stroke-width="1.5" stroke-linecap="round" stroke-linejoin="round"/>
<path d="M16.5703 23.4418L23.1103 16.9019" stroke="#7A5AF8" stroke-width="1.5" stroke-linecap="round" stroke-linejoin="round"/>
<path d="M16.98 18.5418C17.6593 18.5418 18.21 17.9911 18.21 17.3118C18.21 16.6325 17.6593 16.0818 16.98 16.0818C16.3007 16.0818 15.75 16.6325 15.75 17.3118C15.75 17.9911 16.3007 18.5418 16.98 18.5418Z" stroke="#7A5AF8" stroke-width="1.5" stroke-linecap="round" stroke-linejoin="round"/>
<path d="M23.52 24.2617C24.1993 24.2617 24.75 23.711 24.75 23.0317C24.75 22.3524 24.1993 21.8018 23.52 21.8018C22.8407 21.8018 22.29 22.3524 22.29 23.0317C22.29 23.711 22.8407 24.2617 23.52 24.2617Z" stroke="#7A5AF8" stroke-width="1.5" stroke-linecap="round" stroke-linejoin="round"/>
</svg>
