<svg width="40" height="40" viewBox="0 0 40 40" fill="none" xmlns="http://www.w3.org/2000/svg">
<rect width="40" height="40" rx="20" fill="#EBE9FE"/>
<g clip-path="url(#clip0_48_4450)">
<path d="M20 15.0157L19.4103 15.6046L20 16.195L20.5897 15.6046L20 15.0157ZM15.4241 25.8964C15.0989 25.5708 14.5713 25.5704 14.2456 25.8956C13.92 26.2209 13.9197 26.7486 14.2449 27.0743L15.4241 25.8964ZM10.0497 22.8738C10.3749 23.1994 10.9025 23.1998 11.2282 22.8746C11.5538 22.5493 11.5541 22.0216 11.2289 21.6961L10.0497 22.8738ZM12.9021 29.5703C12.9021 30.0304 13.2752 30.4036 13.7355 30.4036C14.1957 30.4036 14.5688 30.0304 14.5688 29.5703H12.9021ZM13.7355 25.3966V24.5633C13.2752 24.5633 12.9021 24.9364 12.9021 25.3966H13.7355ZM17.9118 26.2299C18.372 26.2299 18.7452 25.8569 18.7452 25.3966C18.7452 24.9364 18.372 24.5633 17.9118 24.5633V26.2299ZM17.7888 13.981L19.4103 15.6046L20.5897 14.4268L18.968 12.8032L17.7888 13.981ZM20.5897 15.6046L22.2112 13.981L21.032 12.8032L19.4103 14.4268L20.5897 15.6046ZM29.3582 21.1083L21.668 28.8078L22.8472 29.9856L30.5373 22.2861L29.3582 21.1083ZM18.332 28.8078L15.4241 25.8964L14.2449 27.0743L17.1528 29.9856L18.332 28.8078ZM11.2289 21.6961L10.6418 21.1083L9.4626 22.2861L10.0497 22.8738L11.2289 21.6961ZM22.2112 13.981C24.1837 12.0062 27.3858 12.0062 29.3582 13.981L30.5373 12.8032C27.914 10.1766 23.6555 10.1766 21.032 12.8032L22.2112 13.981ZM10.6418 13.981C12.6143 12.0062 15.8163 12.0062 17.7888 13.981L18.968 12.8032C16.3445 10.1766 12.0861 10.1766 9.4626 12.8033L10.6418 13.981ZM9.4626 12.8033C6.8458 15.4232 6.8458 19.6661 9.4626 22.2861L10.6418 21.1083C8.67495 19.1389 8.67495 15.9503 10.6418 13.981L9.4626 12.8033ZM29.3582 13.981C31.325 15.9503 31.325 19.1389 29.3582 21.1083L30.5373 22.2861C33.1542 19.6661 33.1542 15.4232 30.5373 12.8032L29.3582 13.981ZM21.668 28.8078C21.2598 29.2164 20.9892 29.4866 20.7648 29.6768C20.548 29.8606 20.4308 29.9198 20.3492 29.9458L20.8547 31.5339C21.2337 31.4133 21.546 31.1996 21.8427 30.9479C22.132 30.7028 22.4587 30.3746 22.8472 29.9856L21.668 28.8078ZM17.1528 29.9856C17.5413 30.3746 17.868 30.7028 18.1573 30.9479C18.454 31.1996 18.7663 31.4133 19.1453 31.5339L19.6508 29.9458C19.5692 29.9198 19.452 29.8606 19.2352 29.6768C19.0108 29.4866 18.7402 29.2164 18.332 28.8078L17.1528 29.9856ZM20.3492 29.9458C20.122 30.0179 19.878 30.0179 19.6508 29.9458L19.1453 31.5339C19.7013 31.7108 20.2987 31.7108 20.8547 31.5339L20.3492 29.9458ZM14.5688 29.5703V25.3966H12.9021V29.5703H14.5688ZM13.7355 26.2299H17.9118V24.5633H13.7355V26.2299Z" fill="#7A5AF8"/>
</g>
<defs>
<clipPath id="clip0_48_4450">
<rect width="40" height="40" fill="white"/>
</clipPath>
</defs>
</svg>
