<svg width="40" height="41" viewBox="0 0 40 41" fill="none" xmlns="http://www.w3.org/2000/svg">
<rect y="0.171875" width="40" height="40" rx="20" fill="#EBE9FE"/>
<path d="M17 30.1719H23C28 30.1719 30 28.1719 30 23.1719V17.1719C30 12.1719 28 10.1719 23 10.1719H17C12 10.1719 10 12.1719 10 17.1719V23.1719C10 28.1719 12 30.1719 17 30.1719Z" stroke="#7A5AF8" stroke-width="1.5" stroke-linecap="round" stroke-linejoin="round"/>
<path d="M23.5 26.6719C24.6 26.6719 25.5 25.7719 25.5 24.6719V15.6719C25.5 14.5719 24.6 13.6719 23.5 13.6719C22.4 13.6719 21.5 14.5719 21.5 15.6719V24.6719C21.5 25.7719 22.39 26.6719 23.5 26.6719Z" stroke="#7A5AF8" stroke-width="1.5" stroke-linecap="round" stroke-linejoin="round"/>
<path d="M16.5 26.6719C17.6 26.6719 18.5 25.7719 18.5 24.6719V21.1719C18.5 20.0719 17.6 19.1719 16.5 19.1719C15.4 19.1719 14.5 20.0719 14.5 21.1719V24.6719C14.5 25.7719 15.39 26.6719 16.5 26.6719Z" stroke="#7A5AF8" stroke-width="1.5" stroke-linecap="round" stroke-linejoin="round"/>
</svg>
