<svg width="28" height="28" viewBox="0 0 28 28" fill="none" xmlns="http://www.w3.org/2000/svg">
<circle cx="14" cy="14" r="13" transform="matrix(1 0 0 -1 0 28)" fill="#7A5AF8" stroke="white" stroke-width="2"/>
<path d="M11.2497 9.5C12.8468 9.5 13.9997 10.8185 13.9996 12.7708C13.9894 15.6074 11.857 17.6129 8.78074 17.9981C8.49534 18.0338 8.38529 17.6384 8.64811 17.5216C9.82851 16.9967 10.4247 16.3307 10.5017 15.6714C10.5592 15.1789 10.2915 14.7474 9.95525 14.6667C9.08366 14.4572 8.49969 13.3718 8.49969 12.25C8.49969 10.7312 9.7309 9.5 11.2497 9.5Z" fill="white"/>
<path d="M17.2495 9.5C18.8466 9.5 19.9995 10.8185 19.9995 12.7708C19.9893 15.6074 17.8569 17.6129 14.7806 17.9981C14.4952 18.0338 14.3851 17.6384 14.6479 17.5216C15.8283 16.9967 16.4245 16.3307 16.5015 15.6714C16.559 15.1789 16.2913 14.7474 15.9551 14.6667C15.0835 14.4572 14.4995 13.3718 14.4995 12.25C14.4995 10.7312 15.7307 9.5 17.2495 9.5Z" fill="white"/>
</svg>
